:SAMPLES-PER-SECOND 30
:FRAME-RANGE 1-1770
:FULLY-SPECIFIED
:DEGREES
720
root  -65.8983 38.9264 36.3866 8.41672 16.2852 1.92976
RightUpLeg  -5.13578 -5.48518 -7.12496
RightLeg  15.2036 -2.87493 -1.36904
RightFoot  -13.7907 0.116053 9.79509
RightToes  -1.33073e-015 0 -3.6325e-017
Spine  -4.67829 1.02613 3.76422
Spine1  9.22616 1.613 -3.07924
HEad  4.53944 48.8278 -16.3302
LeftShoulder1  0.902694 0.174357 -22.7792
LeftArm  0.239517 -5.39867 -42.7893
LeftForeArm  29.34 7.91581 -13.9697
LeftHand  -0.00222781 6.30493 3.53368
RightShoulder  1.67999 1.77454 27.0713
RightArm  -28.6375 -8.73151 50.0393
RightForeArm  82.0518 -4.58063 2.17037
RightHand  0.296124 -8.25278 -13.0246
LeftUpLeg  -25.8872 6.82194 9.03252
LeftLeg  12.0296 -0.899826 0.162083
LeftFoot  -4.39723 0.422654 -6.52778
LeftToes  1.09107e-011 -1.16422e-010 2.98337e-011
721
root  -65.4229 38.9137 36.7358 8.92039 18.8226 2.02145
RightUpLeg  -3.68662 -6.23267 -7.51578
RightLeg  14.0174 -4.43376 -1.64204
RightFoot  -13.6957 0.128546 10.7636
RightToes  -1.33073e-015 0 -3.6325e-017
Spine  -4.71154 1.13878 3.40959
Spine1  9.14763 1.71611 -3.0294
HEad  4.33351 48.786 -16.668
LeftShoulder1  0.755313 0.696142 -22.9005
LeftArm  0.319454 -3.69873 -41.5397
LeftForeArm  28.5948 7.97516 -13.6456
LeftHand  -0.0102464 5.97382 3.60443
RightShoulder  1.67617 1.82033 26.6873
RightArm  -28.1774 -8.08863 49.9466
RightForeArm  79.7951 -4.72441 2.44488
RightHand  0.345776 -8.32284 -14.5742
LeftUpLeg  -26.4811 7.82895 9.13381
LeftLeg  6.79535 7.16777 1.24031
LeftFoot  -2.07357 0.452634 -5.42939
LeftToes  1.09107e-011 -1.16422e-010 2.98337e-011
722
root  -64.8245 38.8473 37.0851 9.33604 21.1397 1.96362
RightUpLeg  -2.30598 -6.97415 -7.97107
RightLeg  13.2066 -5.71364 -1.77807
RightFoot  -13.7229 0.161364 12.2183
RightToes  -1.33073e-015 0 -3.6325e-017
Spine  -4.86956 1.17767 3.27679
Spine1  9.16059 1.79886 -3.19043
HEad  3.73735 48.8461 -17.0206
LeftShoulder1  0.623185 1.15692 -22.9611
LeftArm  0.782448 -1.73951 -40.5142
LeftForeArm  28.0861 5.56649 -13.6049
LeftHand  -0.0197425 5.60597 3.64587
RightShoulder  1.69603 1.87769 26.7117
RightArm  -27.6906 -6.9605 49.5511
RightForeArm  77.6895 -4.85174 2.67023
RightHand  0.401946 -8.42069 -16.1457
LeftUpLeg  -27.0916 8.23335 9.18306
LeftLeg  2.80026 16.1126 1.27456
LeftFoot  -1.25051 0.377539 -4.19109
LeftToes  1.09107e-011 -1.16422e-010 2.98337e-011
723
root  -64.1151 38.7336 37.4346 9.6367 23.3322 1.85236
RightUpLeg  -0.870768 -7.56561 -8.55056
RightLeg  12.6851 -6.77344 -1.88722
RightFoot  -13.8506 0.209845 13.8316
RightToes  -1.33073e-015 0 -3.6325e-017
Spine  -4.89538 1.30364 3.06291
Spine1  9.09973 1.92416 -3.13301
HEad  3.12131 48.7573 -17.1597
LeftShoulder1  0.462799 1.71492 -23.0604
LeftArm  1.29293 -0.147486 -40.0824
LeftForeArm  27.7151 2.84195 -13.5624
LeftHand  -0.0319371 5.13816 3.47046
RightShoulder  1.67657 1.83574 26.5936
RightArm  -27.318 -6.00247 49.3748
RightForeArm  74.9497 -4.99745 2.85926
RightHand  0.479081 -8.62885 -17.76
LeftUpLeg  -27.8533 8.11363 8.87445
LeftLeg  0.470582 24.3697 1.21497
LeftFoot  -0.925277 0.238835 -2.55967
LeftToes  1.09107e-011 -1.16422e-010 2.98337e-011
724
root  -63.2635 38.5681 37.7988 9.83281 25.3798 1.72748
RightUpLeg  0.610918 -8.09592 -9.34201
RightLeg  12.5898 -7.55202 -2.01674
RightFoot  -14.0379 0.273755 15.6124
RightToes  -1.33073e-015 0 -3.6325e-017
Spine  -4.7832 1.52907 3.00433
Spine1  8.8439 2.16788 -3.19062
HEad  2.3749 48.241 -17.1266
LeftShoulder1  0.327264 2.17734 -22.9762
LeftArm  2.05655 1.33241 -40.2976
LeftForeArm  27.1319 0.219257 -13.4797
LeftHand  -0.0395143 4.84852 3.56671
RightShoulder  1.66586 1.82337 26.4571
RightArm  -26.6166 -5.83308 49.4206
RightForeArm  72.3661 -5.17175 3.27541
RightHand  0.552751 -8.84836 -19.0128
LeftUpLeg  -28.8563 8.04659 8.2178
LeftLeg  0.511027 30.7221 1.37302
LeftFoot  -0.694358 0.0165343 -0.132478
LeftToes  1.09107e-011 -1.16422e-010 2.98337e-011
725
root  -62.2552 38.353 38.2066 9.81511 27.1703 1.41174
RightUpLeg  2.22503 -8.45668 -10.1951
RightLeg  12.8269 -7.9515 -2.18441
RightFoot  -14.1096 0.339006 17.8856
RightToes  -1.33073e-015 0 -3.6325e-017
Spine  -4.8892 1.95832 3.19418
Spine1  8.84134 2.60595 -3.24726
HEad  1.14394 47.41 -17.2073
LeftShoulder1  0.231485 2.50416 -22.8637
LeftArm  3.23021 3.00802 -41.1335
LeftForeArm  26.6956 -2.80546 -13.1915
LeftHand  -0.04758 4.59313 3.8177
RightShoulder  1.6563 1.8305 26.2156
RightArm  -24.9111 -6.63147 49.5517
RightForeArm  68.3645 -5.34655 4.27033
RightHand  0.53144 -8.60429 -19.6333
LeftUpLeg  -29.6156 8.51002 7.44995
LeftLeg  2.39477 34.0245 1.68758
LeftFoot  -0.848515 -0.0785564 0.911516
LeftToes  1.09107e-011 -1.16422e-010 2.98337e-011
726
root  -61.1474 38.1569 38.637 9.76965 28.4789 1.1037
RightUpLeg  3.93664 -8.63625 -11.2942
RightLeg  12.893 -7.76338 -2.25206
RightFoot  -13.6325 0.325816 20.747
RightToes  -1.33073e-015 0 -3.6325e-017
Spine  -5.01608 2.39128 3.17749
Spine1  8.83795 3.21413 -3.77127
HEad  -0.0692811 46.7009 -16.9423
LeftShoulder1  0.0687531 3.06465 -22.6583
LeftArm  5.68645 5.31631 -42.3614
LeftForeArm  25.581 -6.62076 -12.4888
LeftHand  -0.0535598 4.44555 4.0748
RightShoulder  1.68891 1.93998 26.166
RightArm  -22.8358 -7.61745 49.6412
RightForeArm  64.3402 -0.502236 6.13397
RightHand  0.433529 -8.00064 -19.802
LeftUpLeg  -30.24 9.25446 6.54158
LeftLeg  6.18095 33.9724 2.61649
LeftFoot  -2.27758 0.0178246 -0.0515746
LeftToes  1.09107e-011 -1.16422e-010 2.98337e-011
727
root  -59.9718 38.018 39.0486 9.96385 29.3884 1.42575
RightUpLeg  5.39508 -8.17828 -13.0899
RightLeg  13.3935 -7.38853 -2.43856
RightFoot  -12.5987 0.179977 23.9479
RightToes  -1.33073e-015 0 -3.6325e-017
Spine  -4.82065 2.66804 1.90036
Spine1  8.63448 3.69623 -4.13533
HEad  -1.8191 46.4672 -17.1497
LeftShoulder1  -0.087243 3.60364 -22.981
LeftArm  10.9988 8.2607 -43.2933
LeftForeArm  21.4406 -11.2594 -11.0685
LeftHand  -0.0614674 4.33128 4.61758
RightShoulder  1.69118 1.92471 26.3092
RightArm  -20.4882 -7.75229 49.6039
RightForeArm  61.0824 3.39955 7.74484
RightHand  0.311212 -7.30246 -19.6172
LeftUpLeg  -30.8303 8.67761 5.4372
LeftLeg  9.10028 33.1212 4.19394
LeftFoot  2.87551 0.1451 -1.30356
LeftToes  1.09107e-011 -1.16422e-010 2.98337e-011
728
root  -58.6973 37.8887 39.3972 10.9512 31.3681 2.72823
RightUpLeg  5.8284 -7.38499 -15.599
RightLeg  16.0275 -7.90856 -2.88998
RightFoot  -11.1659 -0.120552 28.0214
RightToes  -1.33073e-015 0 -3.6325e-017
Spine  -4.70102 2.41694 0.154985
Spine1  7.97056 3.4528 -4.25357
HEad  -3.76585 46.4402 -17.3791
LeftShoulder1  -0.145307 3.78992 -23.8203
LeftArm  16.2539 10.04 -43.3582
LeftForeArm  16.6906 -13.9887 -9.95378
LeftHand  -0.0774832 3.88701 4.65797
RightShoulder  1.6393 1.68348 26.8468
RightArm  -18.4274 -6.7076 50.0028
RightForeArm  59.0563 5.7552 8.82844
RightHand  0.266277 -7.021 -19.7764
LeftUpLeg  -32.4905 9.92358 1.89035
LeftLeg  12.8962 28.1866 4.87555
LeftFoot  4.23091 0.0329206 -0.428605
LeftToes  1.09107e-011 -1.16422e-010 2.98337e-011
729
root  -57.4281 37.7855 39.6815 11.8286 33.8548 3.67386
RightUpLeg  4.84721 -6.15944 -17.3505
RightLeg  21.3277 -8.79553 -3.97727
RightFoot  -8.7077 -0.801207 31.4717
RightToes  -1.33073e-015 0 -3.6325e-017
Spine  -4.74016 2.34777 -0.389097
Spine1  7.67051 3.42185 -4.71185
HEad  -4.89578 46.1351 -17.737
LeftShoulder1  -0.0851764 3.58428 -24.3172
LeftArm  13.6171 9.87375 -44.4813
LeftForeArm  19.8768 -11.8506 -11.0555
LeftHand  -0.0818238 3.63394 4.33733
RightShoulder  1.62033 1.69626 26.3634
RightArm  -17.8306 -5.97687 51.7268
RightForeArm  58.4091 7.35696 8.86183
RightHand  0.265609 -7.0016 -19.9458
LeftUpLeg  -33.9317 12.0824 -2.41717
LeftLeg  15.9481 22.351 5.48543
LeftFoot  3.67398 -0.0209621 -0.0100055
LeftToes  1.09107e-011 -1.16422e-010 2.98337e-011
730
root  -56.1923 37.8516 39.8705 11.7102 35.0382 3.94987
RightUpLeg  1.71541 -4.56821 -18.4496
RightLeg  29.857 -9.75115 -6.22769
RightFoot  -3.91466 -1.97172 29.3467
RightToes  -1.33073e-015 0 -3.6325e-017
Spine  -4.24289 3.03061 0.705297
Spine1  7.703 4.35679 -6.04053
HEad  -4.9831 46.176 -18.2514
LeftShoulder1  -0.0352237 3.41821 -24.7324
LeftArm  7.79349 8.61551 -46.1363
LeftForeArm  25.9292 -7.724 -12.4202
LeftHand  -0.0725513 3.68284 3.78387
RightShoulder  1.72653 2.20252 25.2817
RightArm  -17.0975 -5.07088 53.7335
RightForeArm  58.3051 8.51626 8.78698
RightHand  0.289316 -7.1696 -19.6465
LeftUpLeg  -32.9506 10.7369 -3.7695
LeftLeg  16.9048 22.114 5.90748
LeftFoot  4.50032 -0.297362 1.9409
LeftToes  1.09107e-011 -1.16422e-010 2.98337e-011
731
root  -54.9546 38.0503 40.0835 11.1647 36.618 3.81364
RightUpLeg  -2.50561 -3.53732 -18.2543
RightLeg  39.6171 -11.3083 -10.1307
RightFoot  3.32197 -2.26923 17.6859
RightToes  -1.33073e-015 0 -3.6325e-017
Spine  -4.10155 3.38512 1.79063
Spine1  7.82288 4.74198 -6.06814
HEad  -4.58799 47.6173 -18.8805
LeftShoulder1  -0.0271108 3.39004 -25.3949
LeftArm  3.45663 7.16655 -47.2357
LeftForeArm  29.6223 -4.10512 -12.9395
LeftHand  -0.0570053 4.13711 3.4822
RightShoulder  1.8664 2.81046 24.4281
RightArm  -14.6175 -2.91561 55.1607
RightForeArm  58.3042 8.681 9.28864
RightHand  0.296481 -7.22281 -19.5428
LeftUpLeg  -31.1441 9.62671 -4.97863
LeftLeg  16.853 21.3315 5.89784
LeftFoot  4.22751 -0.61997 4.34518
LeftToes  1.09107e-011 -1.16422e-010 2.98337e-011
